<svg width="207" height="57" viewBox="0 0 207 57" fill="none" xmlns="http://www.w3.org/2000/svg">
<path d="M49.2378 44.5489V14.0684C49.2378 14.0684 46.8932 9.37915 38.6869 9.37915C30.4806 9.37915 28.136 16.4131 28.136 16.4131C28.136 16.4131 25.7914 9.37915 17.5851 9.37915C9.37883 9.37915 7.03418 14.0684 7.03418 14.0684V44.5489C7.03418 44.5489 9.37883 39.8596 17.5851 39.8596C25.7914 39.8596 28.136 44.5489 28.136 44.5489C28.136 44.5489 30.4806 39.8596 38.6869 39.8596C46.8932 39.8596 49.2378 44.5489 49.2378 44.5489Z" fill="url(#paint0_linear_536_552)"/>
<path d="M49.2358 14.0679H51.5804C51.58 13.704 51.4949 13.3451 51.3319 13.0198L49.2358 14.0679ZM49.2358 44.5483L47.1397 45.5963C47.3761 46.0682 47.7649 46.4464 48.243 46.6699C48.7211 46.8933 49.2607 46.949 49.7743 46.8277C50.288 46.7065 50.7457 46.4155 51.0735 46.0019C51.4013 45.5882 51.5799 45.0761 51.5804 44.5483H49.2358ZM7.03215 14.0679L4.93603 13.0198C4.77298 13.3451 4.68789 13.704 4.6875 14.0679H7.03215ZM7.03215 44.5483H4.6875C4.68806 45.0761 4.86667 45.5882 5.19443 46.0019C5.52219 46.4155 5.97992 46.7065 6.49358 46.8277C7.00724 46.949 7.54678 46.8933 8.02491 46.6699C8.50304 46.4464 8.89178 46.0682 9.12826 45.5963L7.03215 44.5483ZM28.134 44.5483L26.0379 45.5963C26.2328 45.9853 26.5321 46.3123 26.9023 46.5408C27.2724 46.7694 27.6989 46.8904 28.134 46.8904C28.569 46.8904 28.9955 46.7694 29.3657 46.5408C29.7358 46.3123 30.0351 45.9853 30.2301 45.5963L28.134 44.5483ZM28.134 16.4125L25.9089 17.1534C26.0642 17.6208 26.3627 18.0274 26.7621 18.3156C27.1615 18.6038 27.6415 18.7589 28.134 18.7589C28.6265 18.7589 29.1065 18.6038 29.5059 18.3156C29.9053 18.0274 30.2038 17.6208 30.359 17.1534L28.134 16.4125ZM46.8911 14.0679V44.5483H51.5804V14.0679H46.8911ZM4.6875 14.0679V44.5483H9.37679V14.0679H4.6875ZM49.2358 44.5483L51.3319 43.4979V43.4932L51.3272 43.4862L51.3202 43.4721L51.2545 43.3525L51.1068 43.104C50.9431 42.8478 50.7671 42.5998 50.5793 42.3607C49.9551 41.5813 49.2278 40.8903 48.4175 40.3068C46.3917 38.8344 43.2687 37.5143 38.6849 37.5143V42.2036C42.3074 42.2036 44.4597 43.2282 45.6579 44.1005C46.2722 44.5459 46.6707 44.9773 46.9029 45.2728C47.0201 45.4181 47.0928 45.5307 47.1303 45.5893L47.1608 45.6385L47.1561 45.6292L47.149 45.6174L47.1444 45.6081L47.142 45.6034V45.5987L49.2358 44.5483ZM38.6849 37.5143C34.1011 37.5143 30.978 38.8344 28.9546 40.3068C28.1434 40.8902 27.4154 41.5811 26.7905 42.3607C26.5217 42.7006 26.2802 43.0612 26.0683 43.4393L26.0496 43.4721C26.0496 43.4799 26.0472 43.4846 26.0425 43.4862L26.0402 43.4932V43.4979L28.134 44.5483L30.2301 45.5963V45.6034L30.2254 45.6081L30.2207 45.6174L30.2137 45.6292L30.209 45.6385L30.2395 45.5916C30.2754 45.5276 30.3512 45.4205 30.4669 45.2704C30.699 44.9774 31.0976 44.5459 31.7095 44.0981C32.91 43.2282 35.0624 42.2036 38.6849 42.2036V37.5143ZM28.134 44.5483L30.2301 43.4979V43.4932L30.2254 43.4862L30.2184 43.4721L30.1527 43.3525L30.005 43.104C29.8413 42.8478 29.6652 42.5998 29.4774 42.3607C28.8532 41.5813 28.126 40.8903 27.3157 40.3068C25.2899 38.8344 22.1668 37.5143 17.5831 37.5143V42.2036C21.2055 42.2036 23.3579 43.2282 24.556 44.1005C25.1703 44.5459 25.5689 44.9773 25.801 45.2728C25.9183 45.4181 25.991 45.5307 26.0285 45.5893L26.059 45.6385L26.0543 45.6292L26.0472 45.6174L26.0425 45.6081L26.0402 45.6034V45.5987L28.134 44.5483ZM17.5831 37.5143C12.9993 37.5143 9.8762 38.8344 7.85277 40.3068C7.04163 40.8902 6.31359 41.5811 5.68866 42.3607C5.41985 42.7006 5.17838 43.0612 4.96651 43.4393L4.93603 43.4955C4.93603 43.4979 4.93603 43.5002 7.03215 44.5483L9.12826 45.5963V45.6034L9.12357 45.6081L9.11888 45.6174L9.10716 45.6385L9.13764 45.5916C9.17359 45.5276 9.2494 45.4205 9.36507 45.2704C9.59719 44.9774 9.99578 44.5459 10.6077 44.0981C11.8105 43.2306 13.9629 42.2036 17.5831 42.2036V37.5143ZM49.2358 14.0679L51.3319 13.0198V13.0128L51.3272 13.0081L51.3202 12.9917L51.2545 12.8721L51.1068 12.6236C50.9431 12.3674 50.7671 12.1194 50.5793 11.8803C49.9551 11.1009 49.2278 10.4099 48.4175 9.82641C46.3917 8.35397 43.2687 7.03394 38.6849 7.03394V11.7232C42.3074 11.7232 44.4597 12.7478 45.6579 13.62C46.124 13.9527 46.5428 14.3471 46.9029 14.7924C47.0201 14.9377 47.0928 15.0503 47.1303 15.1089L47.1608 15.1581L47.1561 15.1488L47.149 15.137L47.1444 15.1277L47.142 15.123V15.1183L49.2358 14.0679ZM38.6849 7.03394C33.815 7.03394 30.5818 9.15584 28.6029 11.3106C27.5545 12.4614 26.7043 13.7782 26.0871 15.2074C26.0271 15.3529 25.9708 15.4998 25.9183 15.6482L25.9136 15.6599L25.9112 15.6669C25.9112 15.6693 25.9112 15.6716 28.134 16.4125C30.359 17.1534 30.3567 17.1558 30.3567 17.1558V17.1628L30.3543 17.1675V17.1722L30.359 17.1534L30.4153 17.0104C30.8236 16.083 31.3794 15.2278 32.0612 14.4782C33.3063 13.1206 35.3484 11.7232 38.6849 11.7232V7.03394ZM28.134 16.4125C30.359 15.6716 30.3567 15.6693 30.3567 15.6693V15.6599L30.3497 15.6482L30.3028 15.5145L30.1808 15.2097C29.5639 13.7797 28.7137 12.4621 27.665 11.3106C25.6908 9.1535 22.4552 7.03394 17.5831 7.03394V11.7232C20.9195 11.7232 22.9593 13.1183 24.2067 14.4805C24.8885 15.2301 25.4444 16.0853 25.8526 17.0128L25.9089 17.1534L25.9159 17.1722V17.1675L25.9112 17.1628V17.1581C25.9112 17.1558 25.9112 17.1534 28.134 16.4125ZM17.5831 7.03394C12.9993 7.03394 9.8762 8.35397 7.85277 9.82641C7.04163 10.4098 6.31359 11.1007 5.68866 11.8803C5.41985 12.2202 5.17838 12.5808 4.96651 12.9589L4.94307 13.0057L4.93838 13.0128V13.0175L7.03215 14.0679L9.12826 15.1183V15.123L9.12357 15.1277L9.11185 15.1511L9.10716 15.1581L9.13764 15.1112C9.17359 15.0456 9.2494 14.9385 9.36507 14.79C9.59719 14.4969 9.99578 14.0655 10.6077 13.6177C11.8105 12.7502 13.9629 11.7232 17.5831 11.7232V7.03394Z" fill="url(#paint1_linear_536_552)"/>
<path d="M52.355 39.0339V37.7678C53.2213 37.7456 53.9098 37.679 54.4207 37.5679C54.9538 37.4569 55.3537 37.268 55.6202 37.0015C55.909 36.7349 56.0978 36.3573 56.1866 35.8687C56.2977 35.38 56.3532 34.7469 56.3532 33.9695V18.443C56.3532 17.6656 56.3088 17.0436 56.2199 16.5772C56.1533 16.0885 55.9978 15.7109 55.7535 15.4443C55.5314 15.1556 55.1982 14.9668 54.7539 14.8779C54.3097 14.7668 53.7321 14.6891 53.0213 14.6447V13.3786H62.9836C65.9823 13.3786 68.3146 13.9117 69.9806 14.9779C71.6465 16.0441 72.4795 17.5434 72.4795 19.4759C72.4795 20.9419 72.013 22.1414 71.0801 23.0743C70.1694 24.0072 68.7144 24.7735 66.7153 25.3733V25.5066C67.4039 25.5732 68.0036 25.6509 68.5145 25.7398C69.0254 25.8286 69.4808 25.9397 69.8806 26.073C70.2804 26.184 70.6469 26.3284 70.9801 26.5061C71.3355 26.6838 71.6798 26.8837 72.013 27.1059C73.9899 28.5052 74.9783 30.26 74.9783 32.3702C74.9783 33.5475 74.6452 34.647 73.9788 35.6688C73.3346 36.6683 72.4239 37.4569 71.2467 38.0344C70.869 38.2343 70.4803 38.4009 70.0805 38.5342C69.6807 38.6452 69.2142 38.7452 68.6811 38.834C68.148 38.9007 67.5261 38.9562 66.8153 39.0006C66.1267 39.0228 65.3048 39.0339 64.3497 39.0339H52.355ZM64.4497 37.6012C68.4701 37.6012 70.4803 35.8798 70.4803 32.4368C70.4803 29.9268 69.4475 28.1721 67.3817 27.1725C67.0263 27.017 66.682 26.8837 66.3488 26.7727C66.0156 26.6616 65.6269 26.5839 65.1827 26.5394C64.7384 26.4728 64.2053 26.4284 63.5834 26.4062C62.9836 26.3839 62.2395 26.3728 61.351 26.3728H59.8517V33.8029C59.8517 35.1579 60.2071 36.1352 60.9179 36.7349C61.6287 37.3125 62.8059 37.6012 64.4497 37.6012ZM61.7175 24.7069C62.4061 24.7069 62.9836 24.6958 63.4501 24.6736C63.9166 24.6514 64.3164 24.6181 64.6496 24.5736C64.9828 24.507 65.2715 24.4293 65.5158 24.3404C65.7824 24.2293 66.0489 24.085 66.3155 23.9073C67.0263 23.463 67.5261 22.9299 67.8148 22.308C68.1258 21.686 68.2813 20.8753 68.2813 19.8757C68.2813 18.1209 67.8482 16.8659 66.9819 16.1107C66.1378 15.3333 64.8051 14.9445 62.9836 14.9445H60.4181C60.0405 14.9445 59.8517 15.1333 59.8517 15.511V24.7069H61.7175ZM92.4675 29.738H83.5714C83.1938 30.6487 82.8718 31.4595 82.6052 32.1703C82.3387 32.8589 82.1165 33.4586 81.9388 33.9695C81.7833 34.4804 81.6723 34.9135 81.6056 35.2689C81.539 35.6243 81.5057 35.9131 81.5057 36.1352C81.5057 36.7572 81.7056 37.1903 82.1054 37.4346C82.5052 37.6568 83.1716 37.7678 84.1045 37.7678V39.0339H76.0081V37.7678C76.519 37.7012 76.9521 37.6123 77.3075 37.5013C77.6851 37.3902 78.0072 37.2347 78.2738 37.0348C78.5625 36.8349 78.8069 36.5795 79.0068 36.2685C79.2289 35.9353 79.4399 35.5355 79.6398 35.069L88.3027 13.3786H89.7354L97.2987 32.1703C97.8096 33.4142 98.2539 34.4137 98.6315 35.169C99.0091 35.902 99.3756 36.4573 99.731 36.8349C100.086 37.2125 100.464 37.4569 100.864 37.5679C101.286 37.679 101.786 37.7345 102.363 37.7345V39.0339H91.5013V37.7345C92.6785 37.7345 93.4893 37.6234 93.9335 37.4013C94.3778 37.1792 94.5999 36.8127 94.5999 36.3018C94.5999 36.0797 94.5888 35.8798 94.5666 35.7021C94.5444 35.5022 94.5 35.2911 94.4333 35.069C94.3889 34.8469 94.3112 34.6026 94.2001 34.336C94.1112 34.0472 93.9891 33.7141 93.8336 33.3364L92.4675 29.738ZM84.2378 28.0721H91.8345L88.1361 18.2431L84.2378 28.0721Z" fill="black"/>
<path d="M40.4435 35.2505C40.4435 36.0198 40.4877 36.6275 40.5761 37.0737C40.6644 37.5198 40.8301 37.866 41.0731 38.1122C41.3382 38.3583 41.7027 38.5199 42.1666 38.5968C42.6526 38.6737 43.2822 38.7199 44.0553 38.7353V39.6122H33.3193V38.7353C34.0925 38.7199 34.711 38.6737 35.1749 38.5968C35.6609 38.5045 36.0365 38.343 36.3016 38.1122C36.5666 37.8814 36.7434 37.5583 36.8317 37.1429C36.9201 36.7121 36.9643 36.1352 36.9643 35.4121V26.0425C36.9643 25.3963 36.9201 24.8655 36.8317 24.4501C36.7655 24.0193 36.6108 23.6808 36.3678 23.4347C36.1469 23.1885 35.8156 23.0193 35.3738 22.9269C34.9319 22.8192 34.3576 22.75 33.6507 22.7192V21.8423H43.724V22.7192C43.0171 22.7346 42.4427 22.7962 42.0009 22.9039C41.5812 23.0116 41.2498 23.1962 41.0069 23.4577C40.7859 23.7039 40.6313 24.0501 40.543 24.4962C40.4767 24.9424 40.4435 25.5117 40.4435 26.204V35.2505Z" fill="white"/>
<g clip-path="url(#clip0_536_552)">
<path d="M40.7243 16.8656C40.7243 17.0869 40.6961 17.2984 40.6397 17.5001C40.5833 17.7018 40.5041 17.8917 40.4021 18.0695C40.3002 18.2474 40.1755 18.409 40.0279 18.5543C39.8804 18.6997 39.7199 18.8233 39.5464 18.9253C39.3729 19.0272 39.183 19.1075 38.977 19.166C38.7709 19.2246 38.5583 19.2528 38.3392 19.2506C38.118 19.2506 37.9065 19.2224 37.7047 19.166C37.503 19.1096 37.3132 19.0305 37.1353 18.9285C36.9575 18.8266 36.7959 18.7018 36.6505 18.5543C36.5052 18.4068 36.3815 18.2463 36.2796 18.0728C36.1776 17.8992 36.0974 17.7094 36.0388 17.5034C35.9802 17.2973 35.952 17.0847 35.9542 16.8656C35.9542 16.6509 35.9813 16.4394 36.0356 16.2311C36.0898 16.0229 36.1755 15.8266 36.2926 15.6422C36.3382 15.7333 36.387 15.8233 36.439 15.9123C36.4911 16.0012 36.5507 16.0804 36.618 16.1498C36.6852 16.2192 36.7633 16.2767 36.8523 16.3222C36.9412 16.3678 37.0421 16.3895 37.1549 16.3873C37.2546 16.3873 37.3479 16.3689 37.4347 16.332C37.5215 16.2951 37.5974 16.2431 37.6625 16.1758C37.7275 16.1086 37.7785 16.0327 37.8154 15.9481C37.8523 15.8635 37.8718 15.7702 37.8739 15.6682C37.8739 15.5836 37.8609 15.5077 37.8349 15.4405C37.8089 15.3732 37.772 15.3049 37.7243 15.2355C37.6679 15.1552 37.6191 15.0771 37.5779 15.0012C37.5366 14.9253 37.5008 14.8483 37.4705 14.7702C37.4401 14.6921 37.4195 14.6097 37.4087 14.5229C37.3978 14.4361 37.3902 14.3429 37.3859 14.2431C37.3859 14.037 37.4217 13.8396 37.4933 13.6509C37.5648 13.4622 37.6657 13.2941 37.7959 13.1466C37.926 12.9991 38.0778 12.8754 38.2514 12.7756C38.4249 12.6759 38.6158 12.6129 38.824 12.5869C38.8566 13.0511 38.965 13.4763 39.1494 13.8624C39.3338 14.2485 39.5876 14.6075 39.9108 14.9394C40.1755 15.2105 40.3772 15.5045 40.516 15.8212C40.6548 16.1379 40.7243 16.486 40.7243 16.8656Z" fill="white"/>
</g>
<path d="M108.574 25.8858C108.574 26.2314 108.588 26.5043 108.615 26.7047C108.643 26.9051 108.695 27.0606 108.771 27.1712C108.854 27.2818 108.968 27.3543 109.113 27.3889C109.265 27.4234 109.462 27.4442 109.704 27.4511V27.845H106.345V27.4511C106.587 27.4442 106.781 27.4234 106.926 27.3889C107.078 27.3474 107.195 27.2749 107.278 27.1712C107.361 27.0675 107.417 26.9224 107.444 26.7358C107.472 26.5423 107.486 26.2832 107.486 25.9584V21.7499C107.486 21.4596 107.472 21.2212 107.444 21.0346C107.423 20.8411 107.375 20.6891 107.299 20.5785C107.23 20.468 107.126 20.392 106.988 20.3505C106.85 20.3021 106.67 20.271 106.449 20.2572V19.8633H109.6V20.2572C109.379 20.2641 109.199 20.2918 109.061 20.3401C108.93 20.3885 108.826 20.4714 108.75 20.5889C108.681 20.6995 108.633 20.855 108.605 21.0554C108.584 21.2558 108.574 21.5115 108.574 21.8224V25.8858ZM117.375 27.9486L112.451 21.4596H112.41V25.8858C112.41 26.2314 112.42 26.5043 112.441 26.7047C112.469 26.9051 112.517 27.0606 112.586 27.1712C112.662 27.2818 112.766 27.3543 112.897 27.3889C113.035 27.4234 113.215 27.4442 113.436 27.4511V27.845H110.648V27.4511C110.889 27.4442 111.083 27.4234 111.228 27.3889C111.38 27.3474 111.498 27.2749 111.581 27.1712C111.663 27.0675 111.719 26.9224 111.746 26.7358C111.774 26.5423 111.788 26.2832 111.788 25.9584V21.7499C111.788 21.4596 111.774 21.2212 111.746 21.0346C111.726 20.8411 111.677 20.6891 111.601 20.5785C111.532 20.468 111.428 20.392 111.29 20.3505C111.152 20.3021 110.972 20.271 110.751 20.2572V19.8633H112.804L117.334 25.9066H117.375V21.8224C117.375 21.4838 117.361 21.2143 117.334 21.0139C117.313 20.8066 117.264 20.6476 117.188 20.5371C117.119 20.4265 117.016 20.3539 116.877 20.3194C116.746 20.2848 116.57 20.2641 116.349 20.2572V19.8633H119.137V20.2572C118.895 20.2641 118.698 20.2883 118.546 20.3298C118.401 20.3643 118.287 20.4334 118.204 20.5371C118.121 20.6407 118.066 20.7893 118.038 20.9828C118.011 21.1763 117.997 21.432 117.997 21.7499V27.9486H117.375ZM127.682 21.8432H127.257C127.236 21.546 127.188 21.2972 127.112 21.0968C127.036 20.8964 126.925 20.7409 126.78 20.6304C126.642 20.5129 126.466 20.43 126.252 20.3816C126.037 20.3332 125.782 20.309 125.485 20.309C125.229 20.309 125.022 20.3159 124.863 20.3298C124.711 20.3367 124.593 20.3539 124.51 20.3816C124.427 20.4092 124.372 20.4438 124.344 20.4852C124.324 20.5198 124.313 20.5682 124.313 20.6304V26.1761C124.313 26.3972 124.327 26.5873 124.355 26.7462C124.389 26.9051 124.451 27.0364 124.541 27.1401C124.638 27.2368 124.773 27.3129 124.946 27.3681C125.125 27.4165 125.36 27.4442 125.65 27.4511V27.845H121.732V27.4511C122.022 27.4442 122.257 27.4165 122.437 27.3681C122.617 27.3129 122.751 27.2368 122.841 27.1401C122.938 27.0364 123 26.9051 123.028 26.7462C123.062 26.5873 123.08 26.3972 123.08 26.1761V20.6304C123.08 20.5682 123.066 20.5198 123.038 20.4852C123.018 20.4438 122.969 20.4092 122.893 20.3816C122.824 20.3539 122.724 20.3367 122.593 20.3298C122.461 20.3159 122.285 20.309 122.064 20.309C121.794 20.309 121.542 20.3194 121.307 20.3401C121.079 20.3609 120.879 20.4231 120.706 20.5267C120.54 20.6235 120.405 20.7755 120.302 20.9828C120.198 21.1901 120.143 21.4769 120.136 21.8432H119.752V19.8633H127.579L127.682 21.8432ZM130.551 23.4602C130.924 23.4602 131.235 23.4395 131.484 23.398C131.739 23.3497 131.94 23.2771 132.085 23.1804C132.237 23.0836 132.344 22.9592 132.406 22.8072C132.475 22.6552 132.51 22.4755 132.51 22.2682H132.873V25.098H132.51C132.51 24.8907 132.479 24.711 132.417 24.559C132.361 24.407 132.258 24.2826 132.106 24.1858C131.96 24.0822 131.76 24.0062 131.504 23.9578C131.256 23.9025 130.938 23.8749 130.551 23.8749V26.2175C130.551 26.4456 130.578 26.6356 130.634 26.7877C130.689 26.9328 130.782 27.0537 130.914 27.1505C131.052 27.2403 131.231 27.3059 131.453 27.3474C131.674 27.382 131.947 27.3992 132.271 27.3992C132.638 27.3992 132.949 27.3751 133.204 27.3267C133.46 27.2714 133.674 27.1816 133.847 27.0572C134.02 26.9328 134.158 26.7704 134.262 26.57C134.365 26.3627 134.452 26.107 134.521 25.8029H134.915L134.759 27.845H128.322V27.4511C128.564 27.4442 128.757 27.4234 128.903 27.3889C129.055 27.3543 129.172 27.2956 129.255 27.2127C129.338 27.1297 129.393 27.0123 129.421 26.8602C129.449 26.7082 129.462 26.5112 129.462 26.2694V21.4389C129.462 21.197 129.449 21.0035 129.421 20.8584C129.4 20.7064 129.352 20.5889 129.276 20.506C129.207 20.4161 129.103 20.3574 128.965 20.3298C128.827 20.2952 128.647 20.271 128.426 20.2572V19.8633H134.417L134.51 21.6877H134.148C134.106 21.4113 134.037 21.1867 133.94 21.0139C133.851 20.8342 133.723 20.6926 133.557 20.5889C133.398 20.4852 133.194 20.4127 132.945 20.3712C132.696 20.3298 132.396 20.309 132.043 20.309H130.727C130.609 20.309 130.551 20.3678 130.551 20.4852V23.4602ZM142.198 21.8639C142.198 22.4167 142.032 22.8763 141.7 23.2426C141.368 23.6088 140.84 23.8541 140.114 23.9785L142.405 26.7358C142.592 26.9639 142.795 27.1297 143.017 27.2334C143.245 27.3301 143.514 27.4027 143.825 27.4511V27.845H141.824L139.285 24.5901C139.195 24.4726 139.109 24.3793 139.026 24.3102C138.95 24.2411 138.867 24.1893 138.777 24.1547C138.694 24.1133 138.594 24.0891 138.476 24.0822C138.366 24.0684 138.231 24.0615 138.072 24.0615V26.2175C138.072 26.4732 138.086 26.684 138.113 26.8499C138.148 27.0088 138.214 27.1332 138.31 27.223C138.414 27.3129 138.559 27.3751 138.746 27.4096C138.939 27.4372 139.192 27.4511 139.503 27.4511V27.845H135.843V27.4511C136.085 27.4442 136.279 27.4234 136.424 27.3889C136.576 27.3543 136.693 27.2956 136.776 27.2127C136.859 27.1297 136.915 27.0123 136.942 26.8602C136.97 26.7082 136.984 26.5112 136.984 26.2694V21.4389C136.984 21.197 136.97 21.0035 136.942 20.8584C136.921 20.7064 136.873 20.5889 136.797 20.506C136.728 20.4161 136.624 20.3574 136.486 20.3298C136.348 20.2952 136.168 20.271 135.947 20.2572V19.8633H139.202C140.156 19.8633 140.892 20.0395 141.41 20.392C141.935 20.7444 142.198 21.235 142.198 21.8639ZM138.072 23.5432H138.808C139.499 23.5432 140.01 23.4188 140.342 23.17C140.681 22.9143 140.85 22.4962 140.85 21.9157C140.85 21.356 140.715 20.9552 140.446 20.7133C140.183 20.4714 139.769 20.3505 139.202 20.3505H138.248C138.131 20.3505 138.072 20.4092 138.072 20.5267V23.5432ZM150.74 27.9486L145.816 21.4596H145.775V25.8858C145.775 26.2314 145.785 26.5043 145.806 26.7047C145.833 26.9051 145.882 27.0606 145.951 27.1712C146.027 27.2818 146.131 27.3543 146.262 27.3889C146.4 27.4234 146.58 27.4442 146.801 27.4511V27.845H144.013V27.4511C144.254 27.4442 144.448 27.4234 144.593 27.3889C144.745 27.3474 144.863 27.2749 144.945 27.1712C145.028 27.0675 145.084 26.9224 145.111 26.7358C145.139 26.5423 145.153 26.2832 145.153 25.9584V21.7499C145.153 21.4596 145.139 21.2212 145.111 21.0346C145.091 20.8411 145.042 20.6891 144.966 20.5785C144.897 20.468 144.793 20.392 144.655 20.3505C144.517 20.3021 144.337 20.271 144.116 20.2572V19.8633H146.169L150.698 25.9066H150.74V21.8224C150.74 21.4838 150.726 21.2143 150.698 21.0139C150.678 20.8066 150.629 20.6476 150.553 20.5371C150.484 20.4265 150.381 20.3539 150.242 20.3194C150.111 20.2848 149.935 20.2641 149.714 20.2572V19.8633H152.502V20.2572C152.26 20.2641 152.063 20.2883 151.911 20.3298C151.766 20.3643 151.652 20.4334 151.569 20.5371C151.486 20.6407 151.431 20.7893 151.403 20.9828C151.376 21.1763 151.362 21.432 151.362 21.7499V27.9486H150.74ZM157.837 24.9529H155.069C154.951 25.2362 154.851 25.4885 154.768 25.7096C154.685 25.9238 154.616 26.1104 154.561 26.2694C154.513 26.4283 154.478 26.5631 154.457 26.6736C154.437 26.7842 154.426 26.874 154.426 26.9431C154.426 27.1366 154.488 27.2714 154.613 27.3474C154.737 27.4165 154.945 27.4511 155.235 27.4511V27.845H152.716V27.4511C152.875 27.4303 153.01 27.4027 153.12 27.3681C153.238 27.3336 153.338 27.2852 153.421 27.223C153.511 27.1608 153.587 27.0814 153.649 26.9846C153.718 26.881 153.784 26.7566 153.846 26.6114L156.541 19.8633H156.987L159.34 25.7096C159.499 26.0966 159.637 26.4076 159.754 26.6425C159.872 26.8706 159.986 27.0433 160.096 27.1608C160.207 27.2783 160.324 27.3543 160.449 27.3889C160.58 27.4234 160.736 27.4407 160.915 27.4407V27.845H157.536V27.4407C157.902 27.4407 158.155 27.4062 158.293 27.337C158.431 27.2679 158.5 27.1539 158.5 26.995C158.5 26.9259 158.497 26.8637 158.49 26.8084C158.483 26.7462 158.469 26.6805 158.448 26.6114C158.434 26.5423 158.41 26.4663 158.376 26.3834C158.348 26.2936 158.31 26.1899 158.262 26.0724L157.837 24.9529ZM155.276 24.4346H157.64L156.489 21.3767L155.276 24.4346ZM168.174 21.8432H167.749C167.728 21.546 167.679 21.2972 167.603 21.0968C167.527 20.8964 167.417 20.7409 167.272 20.6304C167.134 20.5129 166.957 20.43 166.743 20.3816C166.529 20.3332 166.273 20.309 165.976 20.309C165.72 20.309 165.513 20.3159 165.354 20.3298C165.202 20.3367 165.085 20.3539 165.002 20.3816C164.919 20.4092 164.863 20.4438 164.836 20.4852C164.815 20.5198 164.805 20.5682 164.805 20.6304V26.1761C164.805 26.3972 164.819 26.5873 164.846 26.7462C164.881 26.9051 164.943 27.0364 165.033 27.1401C165.13 27.2368 165.264 27.3129 165.437 27.3681C165.617 27.4165 165.852 27.4442 166.142 27.4511V27.845H162.224V27.4511C162.514 27.4442 162.749 27.4165 162.928 27.3681C163.108 27.3129 163.243 27.2368 163.333 27.1401C163.43 27.0364 163.492 26.9051 163.519 26.7462C163.554 26.5873 163.571 26.3972 163.571 26.1761V20.6304C163.571 20.5682 163.557 20.5198 163.53 20.4852C163.509 20.4438 163.461 20.4092 163.385 20.3816C163.315 20.3539 163.215 20.3367 163.084 20.3298C162.953 20.3159 162.776 20.309 162.555 20.309C162.286 20.309 162.034 20.3194 161.799 20.3401C161.571 20.3609 161.37 20.4231 161.197 20.5267C161.032 20.6235 160.897 20.7755 160.793 20.9828C160.689 21.1901 160.634 21.4769 160.627 21.8432H160.244V19.8633H168.07L168.174 21.8432ZM171.042 25.8858C171.042 26.2314 171.056 26.5043 171.084 26.7047C171.111 26.9051 171.163 27.0606 171.239 27.1712C171.322 27.2818 171.436 27.3543 171.581 27.3889C171.733 27.4234 171.93 27.4442 172.172 27.4511V27.845H168.814V27.4511C169.055 27.4442 169.249 27.4234 169.394 27.3889C169.546 27.3474 169.664 27.2749 169.746 27.1712C169.829 27.0675 169.885 26.9224 169.912 26.7358C169.94 26.5423 169.954 26.2832 169.954 25.9584V21.7499C169.954 21.4596 169.94 21.2212 169.912 21.0346C169.892 20.8411 169.843 20.6891 169.767 20.5785C169.698 20.468 169.594 20.392 169.456 20.3505C169.318 20.3021 169.138 20.271 168.917 20.2572V19.8633H172.068V20.2572C171.847 20.2641 171.668 20.2918 171.529 20.3401C171.398 20.3885 171.294 20.4714 171.218 20.5889C171.149 20.6995 171.101 20.855 171.073 21.0554C171.053 21.2558 171.042 21.5115 171.042 21.8224V25.8858ZM177.411 19.7596C178.019 19.7596 178.585 19.8668 179.111 20.081C179.636 20.2952 180.092 20.5889 180.479 20.9621C180.866 21.3352 181.17 21.7741 181.391 22.2785C181.612 22.783 181.723 23.3289 181.723 23.9163C181.723 24.4761 181.609 25.0013 181.381 25.4919C181.16 25.9826 180.855 26.411 180.469 26.7773C180.082 27.1366 179.625 27.4234 179.1 27.6377C178.575 27.845 178.012 27.9486 177.411 27.9486C176.809 27.9486 176.246 27.845 175.721 27.6377C175.196 27.4234 174.74 27.1366 174.353 26.7773C173.966 26.411 173.658 25.9826 173.43 25.4919C173.209 25.0013 173.098 24.4761 173.098 23.9163C173.098 23.3289 173.209 22.783 173.43 22.2785C173.651 21.7741 173.955 21.3352 174.342 20.9621C174.729 20.5889 175.185 20.2952 175.711 20.081C176.236 19.8668 176.802 19.7596 177.411 19.7596ZM177.411 27.3785C177.867 27.3785 178.274 27.299 178.634 27.1401C179 26.9812 179.311 26.7531 179.567 26.456C179.829 26.1588 180.03 25.7995 180.168 25.3779C180.306 24.9495 180.375 24.4726 180.375 23.9474C180.375 23.3946 180.306 22.897 180.168 22.4548C180.03 22.0056 179.833 21.6255 179.577 21.3145C179.321 20.9966 179.01 20.7548 178.644 20.5889C178.278 20.4161 177.867 20.3298 177.411 20.3298C176.954 20.3298 176.543 20.4161 176.177 20.5889C175.811 20.7548 175.5 20.9966 175.244 21.3145C174.988 21.6255 174.791 22.0056 174.653 22.4548C174.515 22.897 174.446 23.3946 174.446 23.9474C174.446 24.4726 174.515 24.9495 174.653 25.3779C174.791 25.7995 174.988 26.1588 175.244 26.456C175.5 26.7531 175.811 26.9812 176.177 27.1401C176.543 27.299 176.954 27.3785 177.411 27.3785ZM189.379 27.9486L184.455 21.4596H184.414V25.8858C184.414 26.2314 184.424 26.5043 184.445 26.7047C184.472 26.9051 184.521 27.0606 184.59 27.1712C184.666 27.2818 184.77 27.3543 184.901 27.3889C185.039 27.4234 185.219 27.4442 185.44 27.4511V27.845H182.651V27.4511C182.893 27.4442 183.087 27.4234 183.232 27.3889C183.384 27.3474 183.501 27.2749 183.584 27.1712C183.667 27.0675 183.723 26.9224 183.75 26.7358C183.778 26.5423 183.792 26.2832 183.792 25.9584V21.7499C183.792 21.4596 183.778 21.2212 183.75 21.0346C183.73 20.8411 183.681 20.6891 183.605 20.5785C183.536 20.468 183.432 20.392 183.294 20.3505C183.156 20.3021 182.976 20.271 182.755 20.2572V19.8633H184.808L189.337 25.9066H189.379V21.8224C189.379 21.4838 189.365 21.2143 189.337 21.0139C189.317 20.8066 189.268 20.6476 189.192 20.5371C189.123 20.4265 189.02 20.3539 188.881 20.3194C188.75 20.2848 188.574 20.2641 188.353 20.2572V19.8633H191.141V20.2572C190.899 20.2641 190.702 20.2883 190.55 20.3298C190.405 20.3643 190.291 20.4334 190.208 20.5371C190.125 20.6407 190.07 20.7893 190.042 20.9828C190.015 21.1763 190.001 21.432 190.001 21.7499V27.9486H189.379ZM196.476 24.9529H193.708C193.59 25.2362 193.49 25.4885 193.407 25.7096C193.324 25.9238 193.255 26.1104 193.2 26.2694C193.152 26.4283 193.117 26.5631 193.096 26.6736C193.076 26.7842 193.065 26.874 193.065 26.9431C193.065 27.1366 193.127 27.2714 193.252 27.3474C193.376 27.4165 193.584 27.4511 193.874 27.4511V27.845H191.355V27.4511C191.514 27.4303 191.649 27.4027 191.759 27.3681C191.877 27.3336 191.977 27.2852 192.06 27.223C192.15 27.1608 192.226 27.0814 192.288 26.9846C192.357 26.881 192.423 26.7566 192.485 26.6114L195.18 19.8633H195.626L197.979 25.7096C198.138 26.0966 198.276 26.4076 198.393 26.6425C198.511 26.8706 198.625 27.0433 198.735 27.1608C198.846 27.2783 198.963 27.3543 199.088 27.3889C199.219 27.4234 199.375 27.4407 199.554 27.4407V27.845H196.175V27.4407C196.541 27.4407 196.793 27.4062 196.932 27.337C197.07 27.2679 197.139 27.1539 197.139 26.995C197.139 26.9259 197.136 26.8637 197.129 26.8084C197.122 26.7462 197.108 26.6805 197.087 26.6114C197.073 26.5423 197.049 26.4663 197.015 26.3834C196.987 26.2936 196.949 26.1899 196.901 26.0724L196.476 24.9529ZM193.915 24.4346H196.279L195.128 21.3767L193.915 24.4346ZM206.587 27.845H199.891V27.4511C200.133 27.4442 200.326 27.4234 200.471 27.3889C200.623 27.3543 200.741 27.2956 200.824 27.2127C200.907 27.1297 200.962 27.0123 200.989 26.8602C201.017 26.7082 201.031 26.5112 201.031 26.2694V21.4389C201.031 21.197 201.017 21.0035 200.989 20.8584C200.969 20.7064 200.92 20.5889 200.844 20.506C200.775 20.4161 200.672 20.3574 200.533 20.3298C200.395 20.2952 200.215 20.271 199.994 20.2572V19.8633H203.146V20.2572C202.924 20.2641 202.745 20.2848 202.607 20.3194C202.475 20.3539 202.372 20.4161 202.296 20.506C202.226 20.5958 202.178 20.7202 202.15 20.8791C202.13 21.0381 202.119 21.2489 202.119 21.5115V25.9791C202.119 26.2694 202.147 26.5078 202.202 26.6944C202.264 26.874 202.365 27.0157 202.503 27.1194C202.648 27.2161 202.838 27.2852 203.073 27.3267C203.308 27.3612 203.605 27.3785 203.964 27.3785C204.358 27.3785 204.69 27.3578 204.96 27.3163C205.229 27.2679 205.454 27.1885 205.633 27.0779C205.82 26.9604 205.965 26.8015 206.069 26.6011C206.179 26.3938 206.273 26.1277 206.349 25.8029H206.742L206.587 27.845Z" fill="black"/>
<path d="M150.53 36.8025V36.5774C150.684 36.5735 150.806 36.5616 150.897 36.5419C150.992 36.5221 151.063 36.4886 151.11 36.4412C151.162 36.3938 151.195 36.3267 151.211 36.2398C151.231 36.1529 151.241 36.0404 151.241 35.9021V33.1419C151.241 33.0037 151.233 32.8931 151.217 32.8102C151.205 32.7233 151.177 32.6562 151.134 32.6088C151.094 32.5574 151.035 32.5239 150.956 32.5081C150.877 32.4883 150.775 32.4745 150.648 32.4666V32.2415H152.419C152.952 32.2415 153.367 32.3363 153.663 32.5259C153.959 32.7154 154.107 32.9819 154.107 33.3255C154.107 33.5861 154.025 33.7994 153.859 33.9652C153.697 34.1311 153.438 34.2673 153.083 34.3739V34.3976C153.205 34.4095 153.312 34.4233 153.403 34.4391C153.493 34.4549 153.574 34.4746 153.645 34.4983C153.717 34.5181 153.782 34.5437 153.841 34.5753C153.904 34.6069 153.965 34.6425 154.025 34.6819C154.376 34.9307 154.552 35.2427 154.552 35.6178C154.552 35.8271 154.492 36.0226 154.374 36.2042C154.259 36.3819 154.098 36.5221 153.888 36.6248C153.821 36.6603 153.752 36.6899 153.681 36.7136C153.61 36.7334 153.527 36.7512 153.432 36.767C153.337 36.7788 153.227 36.7887 153.1 36.7966C152.978 36.8005 152.832 36.8025 152.662 36.8025H150.53ZM152.68 36.5478C153.395 36.5478 153.752 36.2417 153.752 35.6297C153.752 35.1834 153.568 34.8715 153.201 34.6938C153.138 34.6661 153.077 34.6425 153.018 34.6227C152.958 34.603 152.889 34.5891 152.81 34.5812C152.731 34.5694 152.637 34.5615 152.526 34.5576C152.419 34.5536 152.287 34.5516 152.129 34.5516H151.863V35.8725C151.863 36.1134 151.926 36.2872 152.052 36.3938C152.178 36.4965 152.388 36.5478 152.68 36.5478ZM152.194 34.2555C152.317 34.2555 152.419 34.2535 152.502 34.2495C152.585 34.2456 152.656 34.2397 152.715 34.2318C152.775 34.2199 152.826 34.2061 152.869 34.1903C152.917 34.1706 152.964 34.1449 153.012 34.1133C153.138 34.0343 153.227 33.9396 153.278 33.829C153.333 33.7184 153.361 33.5743 153.361 33.3966C153.361 33.0846 153.284 32.8615 153.13 32.7272C152.98 32.589 152.743 32.5199 152.419 32.5199H151.963C151.896 32.5199 151.863 32.5535 151.863 32.6206V34.2555H152.194ZM156.351 35.683C156.351 35.8804 156.359 36.0364 156.375 36.1509C156.39 36.2654 156.42 36.3543 156.463 36.4175C156.511 36.4807 156.576 36.5221 156.659 36.5419C156.746 36.5616 156.858 36.5735 156.997 36.5774V36.8025H155.077V36.5774C155.216 36.5735 155.326 36.5616 155.409 36.5419C155.496 36.5182 155.563 36.4767 155.61 36.4175C155.658 36.3582 155.689 36.2753 155.705 36.1687C155.721 36.0581 155.729 35.91 155.729 35.7244V33.3196C155.729 33.1537 155.721 33.0175 155.705 32.9109C155.693 32.8003 155.666 32.7134 155.622 32.6502C155.583 32.5871 155.524 32.5436 155.445 32.5199C155.366 32.4923 155.263 32.4745 155.137 32.4666V32.2415H156.937V32.4666C156.811 32.4706 156.708 32.4864 156.629 32.514C156.554 32.5416 156.495 32.589 156.452 32.6562C156.412 32.7193 156.384 32.8082 156.369 32.9227C156.357 33.0372 156.351 33.1833 156.351 33.361V35.683ZM157.494 36.8025V36.5774C157.648 36.5735 157.771 36.5616 157.862 36.5419C157.956 36.5221 158.027 36.4886 158.075 36.4412C158.126 36.3938 158.16 36.3267 158.175 36.2398C158.195 36.1529 158.205 36.0404 158.205 35.9021V33.1419C158.205 33.0037 158.197 32.8931 158.181 32.8102C158.17 32.7233 158.142 32.6562 158.098 32.6088C158.059 32.5574 158 32.5239 157.921 32.5081C157.842 32.4883 157.739 32.4745 157.613 32.4666V32.2415H159.384C159.917 32.2415 160.332 32.3363 160.628 32.5259C160.924 32.7154 161.072 32.9819 161.072 33.3255C161.072 33.5861 160.989 33.7994 160.823 33.9652C160.661 34.1311 160.403 34.2673 160.047 34.3739V34.3976C160.17 34.4095 160.276 34.4233 160.367 34.4391C160.458 34.4549 160.539 34.4746 160.61 34.4983C160.681 34.5181 160.746 34.5437 160.805 34.5753C160.869 34.6069 160.93 34.6425 160.989 34.6819C161.341 34.9307 161.516 35.2427 161.516 35.6178C161.516 35.8271 161.457 36.0226 161.339 36.2042C161.224 36.3819 161.062 36.5221 160.853 36.6248C160.786 36.6603 160.717 36.6899 160.646 36.7136C160.574 36.7334 160.492 36.7512 160.397 36.767C160.302 36.7788 160.191 36.7887 160.065 36.7966C159.943 36.8005 159.796 36.8025 159.627 36.8025H157.494ZM159.644 36.5478C160.359 36.5478 160.717 36.2417 160.717 35.6297C160.717 35.1834 160.533 34.8715 160.166 34.6938C160.103 34.6661 160.041 34.6425 159.982 34.6227C159.923 34.603 159.854 34.5891 159.775 34.5812C159.696 34.5694 159.601 34.5615 159.49 34.5576C159.384 34.5536 159.252 34.5516 159.094 34.5516H158.827V35.8725C158.827 36.1134 158.89 36.2872 159.017 36.3938C159.143 36.4965 159.352 36.5478 159.644 36.5478ZM159.159 34.2555C159.281 34.2555 159.384 34.2535 159.467 34.2495C159.55 34.2456 159.621 34.2397 159.68 34.2318C159.739 34.2199 159.791 34.2061 159.834 34.1903C159.881 34.1706 159.929 34.1449 159.976 34.1133C160.103 34.0343 160.191 33.9396 160.243 33.829C160.298 33.7184 160.326 33.5743 160.326 33.3966C160.326 33.0846 160.249 32.8615 160.095 32.7272C159.945 32.589 159.708 32.5199 159.384 32.5199H158.928C158.861 32.5199 158.827 32.5535 158.827 32.6206V34.2555H159.159ZM165.868 36.8025H162.042V36.5774C162.18 36.5735 162.291 36.5616 162.374 36.5419C162.46 36.5221 162.528 36.4886 162.575 36.4412C162.622 36.3938 162.654 36.3267 162.67 36.2398C162.686 36.1529 162.693 36.0404 162.693 35.9021V33.1419C162.693 33.0037 162.686 32.8931 162.67 32.8102C162.658 32.7233 162.63 32.6562 162.587 32.6088C162.547 32.5574 162.488 32.5239 162.409 32.5081C162.33 32.4883 162.227 32.4745 162.101 32.4666V32.2415H163.902V32.4666C163.775 32.4706 163.673 32.4824 163.594 32.5022C163.519 32.5219 163.46 32.5574 163.416 32.6088C163.377 32.6601 163.349 32.7312 163.333 32.822C163.321 32.9128 163.315 33.0333 163.315 33.1833V35.7363C163.315 35.9021 163.331 36.0384 163.363 36.145C163.398 36.2477 163.456 36.3286 163.535 36.3879C163.617 36.4431 163.726 36.4826 163.86 36.5063C163.995 36.5261 164.164 36.5359 164.37 36.5359C164.595 36.5359 164.784 36.5241 164.938 36.5004C165.092 36.4728 165.221 36.4273 165.323 36.3642C165.43 36.297 165.513 36.2062 165.572 36.0917C165.635 35.9732 165.689 35.8212 165.732 35.6356H165.957L165.868 36.8025ZM167.619 34.2969C167.832 34.2969 168.01 34.2851 168.152 34.2614C168.298 34.2337 168.413 34.1923 168.496 34.137C168.583 34.0817 168.644 34.0106 168.679 33.9238C168.719 33.8369 168.739 33.7342 168.739 33.6157H168.946V35.2328H168.739C168.739 35.1143 168.721 35.0117 168.685 34.9248C168.654 34.8379 168.594 34.7668 168.508 34.7116C168.425 34.6523 168.31 34.6089 168.164 34.5812C168.022 34.5497 167.84 34.5339 167.619 34.5339V35.8725C167.619 36.0028 167.635 36.1114 167.666 36.1983C167.698 36.2812 167.751 36.3503 167.826 36.4056C167.905 36.457 168.008 36.4945 168.134 36.5182C168.261 36.5379 168.417 36.5478 168.602 36.5478C168.812 36.5478 168.989 36.534 169.135 36.5063C169.282 36.4747 169.404 36.4234 169.503 36.3523C169.601 36.2812 169.68 36.1884 169.74 36.0739C169.799 35.9555 169.848 35.8093 169.888 35.6356H170.113L170.024 36.8025H166.346V36.5774C166.484 36.5735 166.594 36.5616 166.677 36.5419C166.764 36.5221 166.831 36.4886 166.879 36.4412C166.926 36.3938 166.958 36.3267 166.973 36.2398C166.989 36.1529 166.997 36.0404 166.997 35.9021V33.1419C166.997 33.0037 166.989 32.8931 166.973 32.8102C166.962 32.7233 166.934 32.6562 166.89 32.6088C166.851 32.5574 166.792 32.5239 166.713 32.5081C166.634 32.4883 166.531 32.4745 166.405 32.4666V32.2415H169.828L169.882 33.284H169.674C169.651 33.1261 169.611 32.9977 169.556 32.899C169.505 32.7964 169.432 32.7154 169.337 32.6562C169.246 32.5969 169.13 32.5555 168.987 32.5318C168.845 32.5081 168.673 32.4962 168.472 32.4962H167.72C167.653 32.4962 167.619 32.5298 167.619 32.5969V34.2969ZM174.731 35.1499H173.149C173.082 35.3118 173.025 35.4559 172.978 35.5823C172.93 35.7047 172.891 35.8113 172.859 35.9021C172.832 35.993 172.812 36.07 172.8 36.1332C172.788 36.1963 172.782 36.2477 172.782 36.2872C172.782 36.3977 172.818 36.4747 172.889 36.5182C172.96 36.5577 173.078 36.5774 173.244 36.5774V36.8025H171.805V36.5774C171.896 36.5656 171.973 36.5498 172.036 36.53C172.103 36.5103 172.16 36.4826 172.208 36.4471C172.259 36.4116 172.302 36.3661 172.338 36.3109C172.377 36.2516 172.415 36.1805 172.45 36.0976L173.991 32.2415H174.245L175.59 35.5823C175.681 35.8034 175.76 35.9811 175.827 36.1154C175.894 36.2457 175.959 36.3444 176.022 36.4116C176.085 36.4787 176.153 36.5221 176.224 36.5419C176.299 36.5616 176.387 36.5715 176.49 36.5715V36.8025H174.559V36.5715C174.768 36.5715 174.913 36.5517 174.992 36.5122C175.071 36.4728 175.11 36.4076 175.11 36.3168C175.11 36.2773 175.108 36.2417 175.104 36.2102C175.1 36.1746 175.092 36.1371 175.08 36.0976C175.073 36.0581 175.059 36.0147 175.039 35.9673C175.023 35.916 175.001 35.8567 174.974 35.7896L174.731 35.1499ZM173.268 34.8537H174.618L173.961 33.1063L173.268 34.8537ZM180.381 32.2415H180.547L180.601 33.6039H180.381C180.294 33.2564 180.127 32.9839 179.878 32.7865C179.629 32.589 179.329 32.4903 178.978 32.4903C178.737 32.4903 178.521 32.5377 178.332 32.6325C178.142 32.7272 177.982 32.8635 177.852 33.0412C177.722 33.2189 177.621 33.4361 177.55 33.6927C177.483 33.9494 177.449 34.2397 177.449 34.5635C177.449 35.1992 177.582 35.6889 177.846 36.0325C178.111 36.3721 178.494 36.5419 178.995 36.5419C179.757 36.5419 180.247 36.1371 180.464 35.3276H180.707V36.8025H180.5L180.364 36.3345C179.949 36.686 179.447 36.8617 178.859 36.8617C178.523 36.8617 178.219 36.8084 177.947 36.7018C177.678 36.5952 177.447 36.4451 177.254 36.2516C177.064 36.0542 176.916 35.8153 176.81 35.5349C176.707 35.2545 176.656 34.9426 176.656 34.599C176.656 34.2397 176.711 33.9119 176.821 33.6157C176.932 33.3196 177.086 33.0649 177.283 32.8516C177.485 32.6384 177.724 32.4745 178 32.36C178.281 32.2415 178.589 32.1823 178.924 32.1823C179.161 32.1823 179.384 32.2159 179.594 32.283C179.803 32.3501 180.03 32.4587 180.275 32.6088L180.381 32.2415ZM183.94 35.1499H182.358C182.291 35.3118 182.234 35.4559 182.187 35.5823C182.139 35.7047 182.1 35.8113 182.068 35.9021C182.04 35.993 182.021 36.07 182.009 36.1332C181.997 36.1963 181.991 36.2477 181.991 36.2872C181.991 36.3977 182.027 36.4747 182.098 36.5182C182.169 36.5577 182.287 36.5774 182.453 36.5774V36.8025H181.014V36.5774C181.105 36.5656 181.182 36.5498 181.245 36.53C181.312 36.5103 181.369 36.4826 181.417 36.4471C181.468 36.4116 181.511 36.3661 181.547 36.3109C181.586 36.2516 181.624 36.1805 181.659 36.0976L183.199 32.2415H183.454L184.799 35.5823C184.89 35.8034 184.969 35.9811 185.036 36.1154C185.103 36.2457 185.168 36.3444 185.231 36.4116C185.294 36.4787 185.361 36.5221 185.433 36.5419C185.508 36.5616 185.596 36.5715 185.699 36.5715V36.8025H183.768V36.5715C183.977 36.5715 184.121 36.5517 184.2 36.5122C184.279 36.4728 184.319 36.4076 184.319 36.3168C184.319 36.2773 184.317 36.2417 184.313 36.2102C184.309 36.1746 184.301 36.1371 184.289 36.0976C184.281 36.0581 184.268 36.0147 184.248 35.9673C184.232 35.916 184.21 35.8567 184.183 35.7896L183.94 35.1499ZM182.477 34.8537H183.827L183.17 33.1063L182.477 34.8537ZM185.85 36.8025V36.5774C186 36.5735 186.12 36.5636 186.211 36.5478C186.306 36.528 186.379 36.4945 186.43 36.4471C186.482 36.3958 186.515 36.3286 186.531 36.2457C186.551 36.1588 186.561 36.0443 186.561 35.9021V33.1419C186.561 33.0037 186.553 32.8931 186.537 32.8102C186.525 32.7233 186.497 32.6562 186.454 32.6088C186.415 32.5574 186.355 32.5239 186.276 32.5081C186.197 32.4883 186.095 32.4745 185.968 32.4666V32.2415H188.047C188.403 32.2415 188.731 32.3008 189.031 32.4192C189.335 32.5377 189.595 32.7016 189.813 32.9109C190.034 33.1202 190.205 33.3689 190.328 33.6572C190.45 33.9455 190.512 34.2594 190.512 34.599C190.512 34.9228 190.454 35.221 190.34 35.4934C190.225 35.762 190.063 35.993 189.854 36.1865C189.649 36.38 189.402 36.532 189.114 36.6426C188.825 36.7492 188.509 36.8025 188.166 36.8025H185.85ZM187.283 32.5318C187.216 32.5318 187.183 32.5653 187.183 32.6325V35.837C187.183 36.2872 187.477 36.5122 188.065 36.5122C188.606 36.5122 189.021 36.3523 189.309 36.0325C189.597 35.7087 189.741 35.2348 189.741 34.6109C189.741 34.2831 189.702 33.9909 189.623 33.7342C189.544 33.4775 189.43 33.2603 189.279 33.0826C189.133 32.9049 188.956 32.7687 188.746 32.6739C188.537 32.5792 188.3 32.5318 188.036 32.5318H187.283ZM192.325 34.2969C192.538 34.2969 192.716 34.2851 192.858 34.2614C193.004 34.2337 193.118 34.1923 193.201 34.137C193.288 34.0817 193.349 34.0106 193.385 33.9238C193.424 33.8369 193.444 33.7342 193.444 33.6157H193.651V35.2328H193.444C193.444 35.1143 193.426 35.0117 193.391 34.9248C193.359 34.8379 193.3 34.7668 193.213 34.7116C193.13 34.6523 193.016 34.6089 192.87 34.5812C192.727 34.5497 192.546 34.5339 192.325 34.5339V35.8725C192.325 36.0028 192.34 36.1114 192.372 36.1983C192.404 36.2812 192.457 36.3503 192.532 36.4056C192.611 36.457 192.714 36.4945 192.84 36.5182C192.966 36.5379 193.122 36.5478 193.308 36.5478C193.517 36.5478 193.695 36.534 193.841 36.5063C193.987 36.4747 194.11 36.4234 194.208 36.3523C194.307 36.2812 194.386 36.1884 194.445 36.0739C194.504 35.9555 194.554 35.8093 194.593 35.6356H194.818L194.729 36.8025H191.051V36.5774C191.189 36.5735 191.3 36.5616 191.383 36.5419C191.47 36.5221 191.537 36.4886 191.584 36.4412C191.632 36.3938 191.663 36.3267 191.679 36.2398C191.695 36.1529 191.703 36.0404 191.703 35.9021V33.1419C191.703 33.0037 191.695 32.8931 191.679 32.8102C191.667 32.7233 191.639 32.6562 191.596 32.6088C191.557 32.5574 191.497 32.5239 191.418 32.5081C191.339 32.4883 191.237 32.4745 191.11 32.4666V32.2415H194.534L194.587 33.284H194.38C194.356 33.1261 194.317 32.9977 194.262 32.899C194.21 32.7964 194.137 32.7154 194.042 32.6562C193.952 32.5969 193.835 32.5555 193.693 32.5318C193.551 32.5081 193.379 32.4962 193.178 32.4962H192.425C192.358 32.4962 192.325 32.5298 192.325 32.5969V34.2969ZM198.34 35.7422L199.88 32.2415H201.207V32.4666C201.081 32.4706 200.978 32.4864 200.899 32.514C200.824 32.5416 200.765 32.589 200.721 32.6562C200.682 32.7193 200.654 32.8082 200.639 32.9227C200.627 33.0372 200.621 33.1833 200.621 33.361V35.683C200.621 35.8804 200.629 36.0364 200.644 36.1509C200.66 36.2654 200.69 36.3543 200.733 36.4175C200.781 36.4807 200.846 36.5221 200.929 36.5419C201.016 36.5616 201.128 36.5735 201.266 36.5774V36.8025H199.347V36.5774C199.485 36.5735 199.596 36.5616 199.679 36.5419C199.766 36.5182 199.833 36.4767 199.88 36.4175C199.928 36.3582 199.959 36.2753 199.975 36.1687C199.991 36.0581 199.999 35.91 199.999 35.7244V32.976H199.94L198.21 36.8617H198.08L196.38 32.976H196.356V35.683C196.356 35.8804 196.364 36.0364 196.38 36.1509C196.395 36.2654 196.425 36.3543 196.468 36.4175C196.516 36.4807 196.581 36.5221 196.664 36.5419C196.751 36.5616 196.863 36.5735 197.002 36.5774V36.8025H195.349V36.5774C195.487 36.5735 195.598 36.5616 195.681 36.5419C195.768 36.5182 195.835 36.4767 195.882 36.4175C195.929 36.3582 195.961 36.2753 195.977 36.1687C195.993 36.0581 196.001 35.91 196.001 35.7244V33.3196C196.001 33.1537 195.993 33.0175 195.977 32.9109C195.965 32.8003 195.937 32.7134 195.894 32.6502C195.854 32.5871 195.795 32.5436 195.716 32.5199C195.637 32.4923 195.535 32.4745 195.408 32.4666V32.2415H196.824L198.317 35.7422H198.34ZM202.213 32.976C202.154 32.8734 202.099 32.7904 202.047 32.7272C201.996 32.6601 201.943 32.6068 201.887 32.5673C201.836 32.5278 201.781 32.5022 201.722 32.4903C201.662 32.4745 201.591 32.4666 201.508 32.4666V32.2415H203.374V32.4666C203.177 32.4666 203.037 32.4824 202.954 32.514C202.875 32.5416 202.835 32.593 202.835 32.668C202.835 32.7509 202.881 32.8694 202.971 33.0234L203.889 34.5931H203.913L204.583 33.4677C204.709 33.2544 204.798 33.0866 204.849 32.9642C204.904 32.8418 204.932 32.743 204.932 32.668C204.932 32.593 204.902 32.5416 204.843 32.514C204.788 32.4824 204.689 32.4666 204.547 32.4666V32.2415H205.903V32.4666C205.82 32.4666 205.745 32.4785 205.678 32.5022C205.615 32.5259 205.548 32.5732 205.477 32.6443C205.406 32.7154 205.327 32.8141 205.24 32.9405C205.157 33.0669 205.054 33.2327 204.932 33.438L204.02 34.9781V35.683C204.02 35.8765 204.026 36.0325 204.038 36.1509C204.053 36.2654 204.083 36.3543 204.126 36.4175C204.174 36.4807 204.239 36.5241 204.322 36.5478C204.409 36.5675 204.523 36.5774 204.665 36.5774V36.8025H202.746V36.5774C202.888 36.5774 203.001 36.5675 203.084 36.5478C203.171 36.5241 203.236 36.4826 203.279 36.4234C203.327 36.3602 203.358 36.2733 203.374 36.1628C203.39 36.0522 203.398 35.9061 203.398 35.7244V35.0018L202.213 32.976Z" fill="black"/>
<defs>
<linearGradient id="paint0_linear_536_552" x1="28.136" y1="9.37915" x2="28.136" y2="44.5489" gradientUnits="userSpaceOnUse">
<stop stop-color="#0C2981"/>
<stop offset="1" stop-color="#2683E2"/>
</linearGradient>
<linearGradient id="paint1_linear_536_552" x1="28.134" y1="7.03394" x2="28.134" y2="46.8904" gradientUnits="userSpaceOnUse">
<stop stop-color="#0C2981"/>
<stop offset="1" stop-color="#2683E2"/>
</linearGradient>
<clipPath id="clip0_536_552">
<rect width="6.66373" height="6.66373" fill="white" transform="translate(34.7998 12.5869)"/>
</clipPath>
</defs>
</svg>
